<svg width="40" height="9" viewBox="0 0 40 9" fill="none" xmlns="http://www.w3.org/2000/svg">
<g clip-path="url(#clip0_1081_2)">
<path d="M3.20463 4.67119H3.93263V5.96719H3.20463V4.67119ZM6.99662 5.96319H6.26862V2.47919H0.868625V5.96319H0.140625V1.75519H0.680625V1.75119H6.99662V1.75519V5.96319ZM5.53662 3.93519H5.53262V5.96319H4.80463V3.93519H2.32863V5.96319H1.60063V3.20719H5.53662V3.93519ZM10.9046 5.86319C10.5073 5.86319 10.1633 5.77385 9.87263 5.59519C9.58196 5.41652 9.35796 5.16985 9.20062 4.85519C9.04329 4.54319 8.96462 4.18185 8.96462 3.77119C8.96462 3.35785 9.04596 2.99385 9.20862 2.67919C9.36862 2.36719 9.59396 2.12319 9.88462 1.94719C10.1753 1.77385 10.5153 1.68719 10.9046 1.68719C11.2993 1.68719 11.642 1.77519 11.9326 1.95119C12.2233 2.12985 12.4486 2.37652 12.6086 2.69119C12.766 3.00319 12.8446 3.36319 12.8446 3.77119C12.8446 4.18452 12.7646 4.54719 12.6046 4.85919C12.4446 5.17385 12.2193 5.41919 11.9286 5.59519C11.638 5.77385 11.2966 5.86319 10.9046 5.86319ZM10.9046 5.13919C11.2833 5.13919 11.566 5.01252 11.7526 4.75919C11.9393 4.50319 12.0326 4.17385 12.0326 3.77119C12.0326 3.35785 11.938 3.02719 11.7486 2.77919C11.5593 2.53119 11.278 2.40719 10.9046 2.40719C10.6486 2.40719 10.4366 2.46585 10.2686 2.58319C10.1033 2.69785 9.98063 2.85785 9.90063 3.06319C9.82063 3.26585 9.78063 3.50185 9.78063 3.77119C9.78063 4.18452 9.87529 4.51652 10.0646 4.76719C10.2566 5.01519 10.5366 5.13919 10.9046 5.13919ZM13.6486 7.51119V1.79519H14.3286V2.15119C14.398 2.07919 14.4726 2.01519 14.5526 1.95919C14.806 1.77785 15.1193 1.68719 15.4926 1.68719C15.866 1.68719 16.1873 1.77785 16.4566 1.95919C16.726 2.14052 16.934 2.38852 17.0806 2.70319C17.2273 3.01785 17.3006 3.37385 17.3006 3.77119C17.3006 4.16585 17.2273 4.52185 17.0806 4.83919C16.9366 5.15385 16.7313 5.40319 16.4646 5.58719C16.1953 5.77119 15.8766 5.86319 15.5086 5.86319C15.13 5.86319 14.8126 5.77119 14.5566 5.58719C14.5086 5.55252 14.462 5.51519 14.4166 5.47519V7.51119H13.6486ZM15.4046 5.17119C15.6473 5.17119 15.8486 5.10852 16.0086 4.98319C16.1686 4.85785 16.2886 4.68985 16.3686 4.47919C16.4486 4.26852 16.4886 4.03252 16.4886 3.77119C16.4886 3.51252 16.4486 3.27785 16.3686 3.06719C16.2886 2.85652 16.1673 2.68985 16.0046 2.56719C15.842 2.44185 15.6326 2.37919 15.3766 2.37919C15.1393 2.37919 14.942 2.43785 14.7846 2.55519C14.63 2.67252 14.5153 2.83652 14.4406 3.04719C14.366 3.25519 14.3286 3.49652 14.3286 3.77119C14.3286 4.04585 14.366 4.28719 14.4406 4.49519C14.5126 4.70585 14.6286 4.87119 14.7886 4.99119C14.946 5.11119 15.1513 5.17119 15.4046 5.17119ZM19.8606 5.86319C19.4686 5.86319 19.1246 5.77652 18.8286 5.60319C18.53 5.43252 18.298 5.19252 18.1326 4.88319C17.97 4.57385 17.8886 4.21519 17.8886 3.80719C17.8886 3.37519 17.9686 3.00052 18.1286 2.68319C18.2913 2.36585 18.518 2.12052 18.8086 1.94719C19.0993 1.77385 19.438 1.68719 19.8246 1.68719C20.2273 1.68719 20.57 1.78052 20.8526 1.96719C21.138 2.15385 21.35 2.41919 21.4886 2.76319C21.63 3.10719 21.686 3.51652 21.6566 3.99119H21.2766V3.97919H20.8926V3.99119H18.7286V4.01919H18.7126C18.742 4.33652 18.834 4.59119 18.9886 4.78319C19.1833 5.02052 19.462 5.14052 19.8246 5.14319C20.0646 5.14319 20.2713 5.08852 20.4446 4.97919C20.6206 4.86985 20.7566 4.71385 20.8526 4.51119L21.6046 4.74719C21.45 5.10185 21.2166 5.37652 20.9046 5.57119C20.5926 5.76585 20.2446 5.86319 19.8606 5.86319ZM20.6286 2.69519C20.458 2.47385 20.1993 2.36319 19.8526 2.36319C19.4713 2.36319 19.1833 2.48452 18.9886 2.72719C18.858 2.89252 18.7713 3.10852 18.7286 3.37519V3.39519L20.8486 3.39119V3.37919H20.8686C20.834 3.08585 20.754 2.85785 20.6286 2.69519ZM22.3646 5.75119V1.79519H23.0486V2.27119C23.158 2.13252 23.29 2.01519 23.4446 1.91919C23.698 1.76719 24.002 1.69119 24.3566 1.69119C24.6313 1.69119 24.862 1.73519 25.0486 1.82319C25.2326 1.91119 25.3833 2.02585 25.5006 2.16719C25.6153 2.31119 25.7033 2.46719 25.7646 2.63519C25.826 2.80319 25.8673 2.96852 25.8886 3.13119C25.91 3.29119 25.9206 3.43252 25.9206 3.55519V5.75519H25.1446V3.80719C25.1446 3.65252 25.1326 3.49385 25.1086 3.33119C25.082 3.17119 25.0326 3.02052 24.9606 2.87919C24.8886 2.74052 24.7873 2.62852 24.6566 2.54319C24.526 2.45785 24.3553 2.41519 24.1446 2.41519C24.0086 2.41519 23.8793 2.43785 23.7566 2.48319C23.634 2.52852 23.5273 2.60052 23.4366 2.69919C23.346 2.80052 23.274 2.93252 23.2206 3.09519C23.1673 3.26052 23.1406 3.46052 23.1406 3.69519V5.75119H22.3646ZM26.5806 2.41119V1.79519H27.2366V1.65519C27.2366 1.55652 27.2406 1.44985 27.2486 1.33519C27.2566 1.22319 27.278 1.11119 27.3126 0.999187C27.3473 0.887187 27.4073 0.784521 27.4926 0.691187C27.5913 0.581854 27.7006 0.504521 27.8206 0.459188C27.9406 0.411188 28.0593 0.384521 28.1766 0.379187C28.2966 0.371187 28.406 0.367188 28.5046 0.367188H29.0046V0.999187H28.5446C28.3633 0.996521 28.2273 1.04052 28.1366 1.13119C28.0486 1.21919 28.0046 1.34585 28.0046 1.51119V1.79519H29.0046V2.41119H28.0046V5.75119H27.2366V2.41119H26.5806ZM31.1606 5.86319C30.766 5.86319 30.4233 5.77385 30.1326 5.59519C29.842 5.41652 29.618 5.16985 29.4606 4.85519C29.3033 4.54319 29.2246 4.18185 29.2246 3.77119C29.2246 3.35785 29.3046 2.99385 29.4646 2.67919C29.6273 2.36719 29.854 2.12319 30.1446 1.94719C30.4353 1.77385 30.774 1.68719 31.1606 1.68719C31.558 1.68719 31.902 1.77519 32.1926 1.95119C32.4833 2.12985 32.7073 2.37652 32.8646 2.69119C33.0246 3.00319 33.1046 3.36319 33.1046 3.77119C33.1046 4.18452 33.0246 4.54719 32.8646 4.85919C32.7046 5.17385 32.4793 5.41919 32.1886 5.59519C31.898 5.77385 31.5553 5.86319 31.1606 5.86319ZM31.1606 5.13919C31.5393 5.13919 31.822 5.01252 32.0086 4.75919C32.1953 4.50319 32.2886 4.17385 32.2886 3.77119C32.2886 3.35785 32.194 3.02719 32.0046 2.77919C31.8153 2.53119 31.534 2.40719 31.1606 2.40719C30.9046 2.40719 30.694 2.46585 30.5286 2.58319C30.3606 2.69785 30.2366 2.85785 30.1566 3.06319C30.0766 3.26585 30.0366 3.50185 30.0366 3.77119C30.0366 4.18452 30.1313 4.51652 30.3206 4.76719C30.5126 5.01519 30.7926 5.13919 31.1606 5.13919ZM33.9086 1.79519H34.5926V2.42719C34.622 2.37652 34.6526 2.32719 34.6846 2.27919C34.7646 2.17519 34.8553 2.08852 34.9566 2.01919C35.058 1.94452 35.17 1.88719 35.2926 1.84719C35.4153 1.80719 35.542 1.78319 35.6726 1.77519C35.8006 1.76719 35.9246 1.77385 36.0446 1.79519V2.51119C35.9166 2.47919 35.774 2.46985 35.6166 2.48319C35.4593 2.49919 35.314 2.54985 35.1806 2.63519C35.0553 2.71519 34.9566 2.81252 34.8846 2.92719C34.8126 3.04185 34.7606 3.16985 34.7286 3.31119C34.6966 3.44985 34.6806 3.59785 34.6806 3.75519V5.75119H33.9086V1.79519ZM34.5926 2.42719L34.5526 2.49919H34.5926V2.42719ZM36.3006 2.41119V1.79519H37.0606V0.695187H37.8286V1.79519H39.0046V2.41119H37.8286V4.15919C37.8286 4.31652 37.8313 4.45385 37.8366 4.57119C37.8393 4.68852 37.8646 4.78719 37.9126 4.86719C37.998 5.01919 38.1366 5.10585 38.3286 5.12719C38.5206 5.14852 38.746 5.14052 39.0046 5.10319V5.75119C38.7566 5.80185 38.5126 5.82319 38.2726 5.81519C38.0326 5.80719 37.8193 5.76052 37.6326 5.67519C37.4433 5.58985 37.3006 5.45519 37.2046 5.27119C37.1193 5.10852 37.074 4.94185 37.0686 4.77119C37.0633 4.60319 37.0606 4.41119 37.0606 4.19519V2.41119H36.3006Z" fill="black"/>
</g>
<defs>
<clipPath id="clip0_1081_2">
<rect width="39" height="8" fill="white" transform="translate(0.140625 0.367188)"/>
</clipPath>
</defs>
</svg>
