<svg width="39" height="8" viewBox="0 0 39 8" fill="none" xmlns="http://www.w3.org/2000/svg">
<g clip-path="url(#clip0_1482_84)">
<path d="M3.064 4.304H3.792V5.6H3.064V4.304ZM6.856 5.596H6.128V2.112H0.728V5.596H0V1.388H0.54V1.384H6.856V1.388V5.596ZM5.396 3.568H5.392V5.596H4.664V3.568H2.188V5.596H1.46V2.84H5.396V3.568ZM10.764 5.496C10.3667 5.496 10.0227 5.40667 9.732 5.228C9.44133 5.04933 9.21733 4.80267 9.06 4.488C8.90267 4.176 8.824 3.81467 8.824 3.404C8.824 2.99067 8.90533 2.62667 9.068 2.312C9.228 2 9.45333 1.756 9.744 1.58C10.0347 1.40667 10.3747 1.32 10.764 1.32C11.1587 1.32 11.5013 1.408 11.792 1.584C12.0827 1.76267 12.308 2.00933 12.468 2.324C12.6253 2.636 12.704 2.996 12.704 3.404C12.704 3.81733 12.624 4.18 12.464 4.492C12.304 4.80667 12.0787 5.052 11.788 5.228C11.4973 5.40667 11.156 5.496 10.764 5.496ZM10.764 4.772C11.1427 4.772 11.4253 4.64533 11.612 4.392C11.7987 4.136 11.892 3.80667 11.892 3.404C11.892 2.99067 11.7973 2.66 11.608 2.412C11.4187 2.164 11.1373 2.04 10.764 2.04C10.508 2.04 10.296 2.09867 10.128 2.216C9.96267 2.33067 9.84 2.49067 9.76 2.696C9.68 2.89867 9.64 3.13467 9.64 3.404C9.64 3.81733 9.73467 4.14933 9.924 4.4C10.116 4.648 10.396 4.772 10.764 4.772ZM13.508 7.144V1.428H14.188V1.784C14.2573 1.712 14.332 1.648 14.412 1.592C14.6653 1.41067 14.9787 1.32 15.352 1.32C15.7253 1.32 16.0467 1.41067 16.316 1.592C16.5853 1.77333 16.7933 2.02133 16.94 2.336C17.0867 2.65067 17.16 3.00667 17.16 3.404C17.16 3.79867 17.0867 4.15467 16.94 4.472C16.796 4.78667 16.5907 5.036 16.324 5.22C16.0547 5.404 15.736 5.496 15.368 5.496C14.9893 5.496 14.672 5.404 14.416 5.22C14.368 5.18533 14.3213 5.148 14.276 5.108V7.144H13.508ZM15.264 4.804C15.5067 4.804 15.708 4.74133 15.868 4.616C16.028 4.49067 16.148 4.32267 16.228 4.112C16.308 3.90133 16.348 3.66533 16.348 3.404C16.348 3.14533 16.308 2.91067 16.228 2.7C16.148 2.48933 16.0267 2.32267 15.864 2.2C15.7013 2.07467 15.492 2.012 15.236 2.012C14.9987 2.012 14.8013 2.07067 14.644 2.188C14.4893 2.30533 14.3747 2.46933 14.3 2.68C14.2253 2.888 14.188 3.12933 14.188 3.404C14.188 3.67867 14.2253 3.92 14.3 4.128C14.372 4.33867 14.488 4.504 14.648 4.624C14.8053 4.744 15.0107 4.804 15.264 4.804ZM19.72 5.496C19.328 5.496 18.984 5.40933 18.688 5.236C18.3893 5.06533 18.1573 4.82533 17.992 4.516C17.8293 4.20667 17.748 3.848 17.748 3.44C17.748 3.008 17.828 2.63333 17.988 2.316C18.1507 1.99867 18.3773 1.75333 18.668 1.58C18.9587 1.40667 19.2973 1.32 19.684 1.32C20.0867 1.32 20.4293 1.41333 20.712 1.6C20.9973 1.78667 21.2093 2.052 21.348 2.396C21.4893 2.74 21.5453 3.14933 21.516 3.624H21.136V3.612H20.752V3.624H18.588V3.652H18.572C18.6013 3.96933 18.6933 4.224 18.848 4.416C19.0427 4.65333 19.3213 4.77333 19.684 4.776C19.924 4.776 20.1307 4.72133 20.304 4.612C20.48 4.50267 20.616 4.34667 20.712 4.144L21.464 4.38C21.3093 4.73467 21.076 5.00933 20.764 5.204C20.452 5.39867 20.104 5.496 19.72 5.496ZM20.488 2.328C20.3173 2.10667 20.0587 1.996 19.712 1.996C19.3307 1.996 19.0427 2.11733 18.848 2.36C18.7173 2.52533 18.6307 2.74133 18.588 3.008V3.028L20.708 3.024V3.012H20.728C20.6933 2.71867 20.6133 2.49067 20.488 2.328ZM22.224 5.384V1.428H22.908V1.904C23.0173 1.76533 23.1493 1.648 23.304 1.552C23.5573 1.4 23.8613 1.324 24.216 1.324C24.4907 1.324 24.7213 1.368 24.908 1.456C25.092 1.544 25.2427 1.65867 25.36 1.8C25.4747 1.944 25.5627 2.1 25.624 2.268C25.6853 2.436 25.7267 2.60133 25.748 2.764C25.7693 2.924 25.78 3.06533 25.78 3.188V5.388H25.004V3.44C25.004 3.28533 24.992 3.12667 24.968 2.964C24.9413 2.804 24.892 2.65333 24.82 2.512C24.748 2.37333 24.6467 2.26133 24.516 2.176C24.3853 2.09067 24.2147 2.048 24.004 2.048C23.868 2.048 23.7387 2.07067 23.616 2.116C23.4933 2.16133 23.3867 2.23333 23.296 2.332C23.2053 2.43333 23.1333 2.56533 23.08 2.728C23.0267 2.89333 23 3.09333 23 3.328V5.384H22.224ZM26.44 2.044V1.428H27.096V1.288C27.096 1.18933 27.1 1.08267 27.108 0.968C27.116 0.856 27.1373 0.744 27.172 0.632C27.2067 0.52 27.2667 0.417333 27.352 0.324C27.4507 0.214667 27.56 0.137333 27.68 0.092C27.8 0.044 27.9187 0.0173332 28.036 0.0119998C28.156 0.00399985 28.2653 0 28.364 0H28.864V0.632H28.404C28.2227 0.629333 28.0867 0.673334 27.996 0.764C27.908 0.852 27.864 0.978666 27.864 1.144V1.428H28.864V2.044H27.864V5.384H27.096V2.044H26.44ZM31.02 5.496C30.6253 5.496 30.2827 5.40667 29.992 5.228C29.7013 5.04933 29.4773 4.80267 29.32 4.488C29.1627 4.176 29.084 3.81467 29.084 3.404C29.084 2.99067 29.164 2.62667 29.324 2.312C29.4867 2 29.7133 1.756 30.004 1.58C30.2947 1.40667 30.6333 1.32 31.02 1.32C31.4173 1.32 31.7613 1.408 32.052 1.584C32.3427 1.76267 32.5667 2.00933 32.724 2.324C32.884 2.636 32.964 2.996 32.964 3.404C32.964 3.81733 32.884 4.18 32.724 4.492C32.564 4.80667 32.3387 5.052 32.048 5.228C31.7573 5.40667 31.4147 5.496 31.02 5.496ZM31.02 4.772C31.3987 4.772 31.6813 4.64533 31.868 4.392C32.0547 4.136 32.148 3.80667 32.148 3.404C32.148 2.99067 32.0533 2.66 31.864 2.412C31.6747 2.164 31.3933 2.04 31.02 2.04C30.764 2.04 30.5533 2.09867 30.388 2.216C30.22 2.33067 30.096 2.49067 30.016 2.696C29.936 2.89867 29.896 3.13467 29.896 3.404C29.896 3.81733 29.9907 4.14933 30.18 4.4C30.372 4.648 30.652 4.772 31.02 4.772ZM33.768 1.428H34.452V2.06C34.4813 2.00933 34.512 1.96 34.544 1.912C34.624 1.808 34.7147 1.72133 34.816 1.652C34.9173 1.57733 35.0293 1.52 35.152 1.48C35.2747 1.44 35.4013 1.416 35.532 1.408C35.66 1.4 35.784 1.40667 35.904 1.428V2.144C35.776 2.112 35.6333 2.10267 35.476 2.116C35.3187 2.132 35.1733 2.18267 35.04 2.268C34.9147 2.348 34.816 2.44533 34.744 2.56C34.672 2.67467 34.62 2.80267 34.588 2.944C34.556 3.08267 34.54 3.23067 34.54 3.388V5.384H33.768V1.428ZM34.452 2.06L34.412 2.132H34.452V2.06ZM36.16 2.044V1.428H36.92V0.328H37.688V1.428H38.864V2.044H37.688V3.792C37.688 3.94933 37.6907 4.08667 37.696 4.204C37.6987 4.32133 37.724 4.42 37.772 4.5C37.8573 4.652 37.996 4.73867 38.188 4.76C38.38 4.78133 38.6053 4.77333 38.864 4.736V5.384C38.616 5.43467 38.372 5.456 38.132 5.448C37.892 5.44 37.6787 5.39333 37.492 5.308C37.3027 5.22267 37.16 5.088 37.064 4.904C36.9787 4.74133 36.9333 4.57467 36.928 4.404C36.9227 4.236 36.92 4.044 36.92 3.828V2.044H36.16Z" fill="white"/>
</g>
<defs>
<clipPath id="clip0_1482_84">
<rect width="39" height="8" fill="white"/>
</clipPath>
</defs>
</svg>
