<svg width="167" height="31" viewBox="0 0 167 31" fill="none" xmlns="http://www.w3.org/2000/svg">
<rect y="19" width="12" height="12" fill="#004AAD"/>
<rect x="12" y="7" width="12" height="12" fill="#004AAD"/>
<rect x="24" y="19" width="12" height="12" fill="#004AAD"/>
<path d="M43.4486 17.3184V16.3301C43.4486 13.7021 44.0999 11.7144 45.4027 10.3667C46.7129 9.01156 48.3975 8.33398 50.4564 8.33398C52.5228 8.33398 54.2111 9.01156 55.5213 10.3667C56.839 11.7144 57.4979 13.7021 57.4979 16.3301V17.3184C57.4979 19.9463 56.839 21.9378 55.5213 23.293C54.2111 24.6406 52.5228 25.3145 50.4564 25.3145C48.3975 25.3145 46.7129 24.6406 45.4027 23.293C44.0999 21.9378 43.4486 19.9463 43.4486 17.3184ZM46.5482 17.644C46.5482 19.4259 46.9001 20.7624 47.6038 21.6533C48.3151 22.5368 49.2659 22.9785 50.4564 22.9785C51.6543 22.9785 52.6089 22.5368 53.3201 21.6533C54.0389 20.7624 54.3983 19.4259 54.3983 17.644V16.0044C54.3983 14.2225 54.0389 12.8898 53.3201 12.0063C52.6089 11.1229 51.6543 10.6812 50.4564 10.6812C49.2659 10.6812 48.3151 11.1229 47.6038 12.0063C46.9001 12.8898 46.5482 14.2225 46.5482 16.0044V17.644ZM59.7717 29.7168V13.4775H62.5232L62.5906 14.8701H62.6467C62.9088 14.4059 63.343 14.0203 63.9495 13.7134C64.5559 13.3989 65.241 13.2417 66.0046 13.2417C67.4796 13.2417 68.6625 13.7733 69.5535 14.8364C70.4444 15.8921 70.8899 17.2959 70.8899 19.0479V19.4072C70.8899 21.1517 70.4444 22.5592 69.5535 23.6299C68.67 24.693 67.502 25.2246 66.0496 25.2246C65.2859 25.2246 64.6158 25.0936 64.0393 24.8315C63.4628 24.5695 63.0173 24.2139 62.7029 23.7646V29.7168H59.7717ZM62.7029 21.2939C62.8901 21.7432 63.2083 22.14 63.6575 22.4844C64.1067 22.8288 64.6383 23.001 65.2522 23.001C66.1581 23.001 66.8245 22.6828 67.2512 22.0464C67.6855 21.41 67.9026 20.5677 67.9026 19.5195V18.9355C67.9026 17.8874 67.6855 17.0488 67.2512 16.4199C66.817 15.791 66.1506 15.4766 65.2522 15.4766C64.6158 15.4766 64.0805 15.645 63.6462 15.9819C63.212 16.3188 62.8975 16.7119 62.7029 17.1611V21.2939ZM72.2204 19.4072V19.0479C72.2204 17.2809 72.7407 15.8584 73.7814 14.7803C74.8221 13.6947 76.1773 13.1519 77.8469 13.1519C79.509 13.1519 80.8042 13.661 81.7326 14.6792C82.661 15.6974 83.1252 17.0938 83.1252 18.8682V19.9014H74.0959V18.0259H80.2277V17.8013C80.2277 17.1125 80.0256 16.5247 79.6213 16.0381C79.217 15.5514 78.6292 15.3081 77.8581 15.3081C76.9671 15.3081 76.2933 15.6413 75.8366 16.3076C75.3799 16.974 75.1515 17.8387 75.1515 18.9019V19.5083C75.1515 20.5864 75.3949 21.4587 75.8815 22.125C76.3682 22.7913 77.0982 23.1245 78.0715 23.1245C78.7153 23.1245 79.2694 22.9748 79.7336 22.6753C80.2053 22.3758 80.5833 22.0202 80.8679 21.6084L82.9679 22.8662C82.6011 23.555 81.9984 24.139 81.1598 24.6182C80.3288 25.0898 79.3106 25.3257 78.1052 25.3257C76.2484 25.3257 74.8034 24.7866 73.7702 23.7085C72.737 22.6229 72.2204 21.1891 72.2204 19.4072ZM84.9835 25V13.4775H87.7687L87.8248 14.8813H87.881C88.2179 14.3872 88.6858 13.9904 89.2848 13.6909C89.8912 13.3914 90.5688 13.2417 91.3175 13.2417C92.4855 13.2417 93.4326 13.5749 94.1588 14.2412C94.885 14.9001 95.2482 16.0381 95.2482 17.6553V25H92.317V17.7002C92.317 16.9066 92.1448 16.3488 91.8004 16.0269C91.456 15.6974 90.9693 15.5327 90.3404 15.5327C89.8164 15.5327 89.3372 15.6825 88.9029 15.9819C88.4762 16.2739 88.1468 16.6745 87.9147 17.1836V25H84.9835ZM97.1739 20.4629V20.0923H100.184V20.3955C100.184 21.2715 100.457 21.9266 101.003 22.3608C101.557 22.7876 102.325 23.001 103.306 23.001C104.286 23.001 105.039 22.7913 105.563 22.3721C106.087 21.9528 106.349 21.3988 106.349 20.71C106.349 20.0436 106.095 19.5195 105.585 19.1377C105.084 18.7484 104.051 18.3328 102.486 17.8911C100.779 17.4119 99.5135 16.798 98.69 16.0493C97.8664 15.3006 97.4509 14.2712 97.4434 12.9609C97.4434 11.5758 97.96 10.4603 98.9932 9.61426C100.034 8.76074 101.438 8.33398 103.205 8.33398C104.972 8.33398 106.383 8.76823 107.439 9.63672C108.502 10.5052 109.033 11.6582 109.033 13.0957V13.4102H106.068V13.1519C106.068 12.4032 105.829 11.8005 105.35 11.3438C104.87 10.887 104.163 10.6587 103.227 10.6587C102.276 10.6587 101.576 10.8496 101.127 11.2314C100.685 11.6058 100.464 12.1149 100.464 12.7588C100.464 13.3652 100.708 13.8407 101.194 14.1851C101.681 14.522 102.71 14.9113 104.283 15.353C105.967 15.8322 107.233 16.4611 108.079 17.2397C108.932 18.0184 109.359 19.1115 109.359 20.519C109.359 22.0015 108.809 23.1732 107.708 24.0342C106.615 24.8877 105.151 25.3145 103.317 25.3145C101.498 25.3145 100.019 24.8952 98.8809 24.0566C97.7429 23.2181 97.1739 22.0202 97.1739 20.4629ZM111.363 25V13.4775H114.306V25H111.363ZM111.094 10.0298C111.094 9.57308 111.243 9.19124 111.543 8.88428C111.842 8.57731 112.273 8.42383 112.834 8.42383C113.388 8.42383 113.815 8.57731 114.115 8.88428C114.414 9.19124 114.564 9.57308 114.564 10.0298C114.564 10.479 114.414 10.8608 114.115 11.1753C113.815 11.4897 113.385 11.647 112.823 11.647C112.269 11.647 111.842 11.4897 111.543 11.1753C111.243 10.8608 111.094 10.479 111.094 10.0298ZM116.928 28.3467L118.174 26.4263C118.466 26.7257 118.923 27.0065 119.544 27.2686C120.173 27.5381 120.858 27.6729 121.6 27.6729C122.461 27.6729 123.161 27.4108 123.7 26.8867C124.246 26.3701 124.519 25.5765 124.519 24.5059V23.686C124.205 24.1502 123.771 24.5208 123.217 24.7979C122.663 25.0674 121.989 25.2021 121.195 25.2021C119.735 25.2021 118.56 24.6668 117.669 23.5962C116.778 22.5256 116.332 21.133 116.332 19.4185V19.0591C116.332 17.3371 116.774 15.9408 117.658 14.8701C118.541 13.792 119.724 13.2529 121.206 13.2529C121.955 13.2529 122.629 13.4102 123.228 13.7246C123.834 14.0316 124.272 14.4209 124.542 14.8926H124.598L124.665 13.4775H127.439V24.3599C127.439 26.1493 126.915 27.5194 125.867 28.4702C124.819 29.4285 123.468 29.9077 121.813 29.9077C120.802 29.9077 119.874 29.758 119.028 29.4585C118.189 29.159 117.489 28.7884 116.928 28.3467ZM119.308 19.4971C119.308 20.5228 119.529 21.3613 119.971 22.0127C120.42 22.6641 121.105 22.9897 122.026 22.9897C122.64 22.9897 123.161 22.8175 123.587 22.4731C124.022 22.1287 124.329 21.7319 124.508 21.2827V17.2173C124.321 16.7306 124.01 16.3188 123.576 15.9819C123.142 15.645 122.618 15.4766 122.004 15.4766C121.09 15.4766 120.413 15.806 119.971 16.4648C119.529 17.1162 119.308 17.9548 119.308 18.9805V19.4971ZM130.039 25V13.4775H132.824L132.88 14.8813H132.936C133.273 14.3872 133.741 13.9904 134.34 13.6909C134.947 13.3914 135.624 13.2417 136.373 13.2417C137.541 13.2417 138.488 13.5749 139.214 14.2412C139.94 14.9001 140.304 16.0381 140.304 17.6553V25H137.372V17.7002C137.372 16.9066 137.2 16.3488 136.856 16.0269C136.511 15.6974 136.025 15.5327 135.396 15.5327C134.872 15.5327 134.393 15.6825 133.958 15.9819C133.532 16.2739 133.202 16.6745 132.97 17.1836V25H130.039ZM142.173 19.4072V19.0479C142.173 17.2809 142.693 15.8584 143.734 14.7803C144.775 13.6947 146.13 13.1519 147.8 13.1519C149.462 13.1519 150.757 13.661 151.685 14.6792C152.614 15.6974 153.078 17.0938 153.078 18.8682V19.9014H144.049V18.0259H150.18V17.8013C150.18 17.1125 149.978 16.5247 149.574 16.0381C149.17 15.5514 148.582 15.3081 147.811 15.3081C146.92 15.3081 146.246 15.6413 145.789 16.3076C145.333 16.974 145.104 17.8387 145.104 18.9019V19.5083C145.104 20.5864 145.348 21.4587 145.834 22.125C146.321 22.7913 147.051 23.1245 148.024 23.1245C148.668 23.1245 149.222 22.9748 149.686 22.6753C150.158 22.3758 150.536 22.0202 150.821 21.6084L152.921 22.8662C152.554 23.555 151.951 24.139 151.113 24.6182C150.281 25.0898 149.263 25.3257 148.058 25.3257C146.201 25.3257 144.756 24.7866 143.723 23.7085C142.69 22.6229 142.173 21.1891 142.173 19.4072ZM154.936 25V13.4775H157.733L157.8 14.8589H157.856C158.118 14.4022 158.474 14.0091 158.923 13.6797C159.372 13.3428 159.889 13.1743 160.473 13.1743C160.638 13.1743 160.806 13.193 160.978 13.2305C161.15 13.2679 161.27 13.3016 161.338 13.3315V15.8247C161.203 15.7948 161.053 15.7723 160.888 15.7573C160.731 15.7349 160.555 15.7236 160.361 15.7236C159.806 15.7236 159.309 15.8846 158.867 16.2065C158.433 16.5285 158.107 16.9365 157.89 17.4307V25H154.936Z" fill="#004AAD"/>
</svg>
